<svg width="1581" height="413" viewBox="0 0 1581 413" fill="none" xmlns="http://www.w3.org/2000/svg">
<path d="M51.982 175.592C33.7525 103.275 64.0352 51.2117 88.3433 30.1492C89.9638 28.7451 92.4306 29.5653 93.0901 31.6056C109.912 83.6456 135.545 95.3202 192.055 129.202C250.073 163.986 275.78 225.493 262.27 291.967C252.554 339.772 219.557 369.079 199.578 380.687C197.265 382.03 194.692 379.798 195.405 377.221C214.082 309.729 170.955 283.17 156.819 275.742C146.557 270.35 69.2381 244.048 51.982 175.592Z" fill="#B9151D"/>
<path d="M116.273 272.059C64.3529 247.626 44.5066 207.976 41.6557 182.86C41.3758 180.394 38.5323 179.004 36.6299 180.598C-6.74547 216.952 -20.9525 309.926 70.206 343.776C131.297 366.461 154.478 389.928 160.761 403.939C161.936 406.559 166.369 407.9 168.049 405.571C195.032 368.161 183.923 303.894 116.273 272.059Z" fill="#7C2327"/>
<path d="M166.211 92.7684C124.989 78.5151 115.71 38.8984 115.785 8.96437C115.793 5.81151 120.818 4.52793 123.147 6.65317C149.352 30.5665 220.5 16.3491 258.845 79.2622C297.106 142.036 283.047 172.855 273.071 197.648C271.991 200.331 268.021 200.279 267.042 197.557C235.596 110.06 230.059 114.845 166.211 92.7684Z" fill="#F21E28"/>
<path d="M1510.53 352.205V136.58H1573.85V352.205H1510.53ZM1541.57 110.507C1531.09 110.507 1522.12 107.472 1514.67 101.402C1507.5 95.3316 1503.91 86.7783 1503.91 75.7419C1503.91 64.4295 1507.5 55.7383 1514.67 49.6683C1522.12 43.5982 1531.09 40.5632 1541.57 40.5632C1552.33 40.5632 1561.44 43.5982 1568.89 49.6683C1576.34 55.4624 1580.06 64.1536 1580.06 75.7419C1580.06 86.7783 1576.34 95.3316 1568.89 101.402C1561.44 107.472 1552.33 110.507 1541.57 110.507Z" fill="black"/>
<path d="M1274.46 352.205V308.335L1394.49 187.486H1279.85V136.58H1477.26V180.45L1357.24 300.885H1476.43V352.205H1274.46Z" fill="black"/>
<path d="M1152.38 358.413C1130.58 358.413 1111.13 353.585 1094.03 343.928C1077.19 333.995 1063.95 320.475 1054.29 303.369C1044.91 286.262 1040.22 266.81 1040.22 245.013C1040.22 223.492 1044.78 204.317 1053.88 187.486C1063.26 170.655 1076.23 157.412 1092.78 147.755C1109.34 137.822 1128.38 132.856 1149.9 132.856C1166.73 132.856 1181.63 136.029 1194.6 142.374C1207.56 148.445 1218.46 156.998 1227.29 168.034C1236.12 178.795 1242.88 191.211 1247.57 205.282C1252.54 219.354 1255.3 233.977 1255.85 249.152L1106.03 287.228C1110.99 294.677 1117.34 300.472 1125.07 304.61C1133.07 308.749 1142.72 310.818 1154.04 310.818C1163.14 310.818 1172.66 309.715 1182.59 307.507C1192.53 305.024 1202.04 301.713 1211.15 297.575C1220.53 293.16 1228.53 287.78 1235.15 281.434V334.409C1223.01 342.962 1209.36 349.032 1194.18 352.619C1179.28 356.482 1165.35 358.413 1152.38 358.413ZM1101.48 244.186L1192.94 220.595C1190.18 208.731 1184.8 199.212 1176.8 192.038C1168.8 184.865 1158.86 181.278 1147 181.278C1136.24 181.278 1127.41 184.451 1120.51 190.797C1113.62 196.867 1108.51 204.592 1105.2 213.973C1102.16 223.079 1100.65 232.459 1100.65 242.116L1101.48 244.186Z" fill="black"/>
<path d="M890.51 352.205V136.58L954.659 173.828C961.557 161.136 970.248 151.204 980.733 144.03C991.493 136.58 1004.46 132.856 1019.64 132.856C1021.29 132.856 1022.81 132.856 1024.19 132.856C1025.57 132.856 1026.81 132.993 1027.91 133.269V199.074C1026.81 198.522 1025.29 198.247 1023.36 198.247C1021.71 197.971 1019.77 197.833 1017.57 197.833C1005.7 197.833 994.942 200.316 985.285 205.282C975.628 210.249 968.041 217.974 962.523 228.459C957.004 238.667 954.245 252.049 954.245 268.604V352.205H890.51Z" fill="black"/>
<path d="M736.215 357.171C713.314 357.171 693.035 352.205 675.377 342.272C657.718 332.063 643.785 318.406 633.576 301.299C623.643 284.193 618.677 265.293 618.677 244.6C618.677 229.149 621.574 214.525 627.368 200.73C633.162 186.934 641.302 174.932 651.786 164.723C662.547 154.239 675.101 146.099 689.448 140.305C703.796 134.511 719.522 131.614 736.629 131.614C759.53 131.614 779.809 136.718 797.467 146.927C815.402 156.86 829.335 170.241 839.268 187.072C849.477 203.903 854.581 222.803 854.581 243.772C854.581 260.051 851.546 275.088 845.476 288.883C839.406 302.679 830.853 314.681 819.816 324.89C808.78 335.098 796.088 343.1 781.74 348.894C767.669 354.412 752.494 357.171 736.215 357.171ZM736.629 303.369C747.665 303.369 757.322 300.61 765.6 295.091C773.877 289.573 780.361 282.399 785.051 273.57C789.742 264.465 792.087 254.808 792.087 244.6C792.087 234.115 789.742 224.32 785.051 215.215C780.361 206.11 773.739 198.936 765.186 193.694C756.908 188.176 747.114 185.417 735.801 185.417C725.041 185.417 715.384 188.038 706.831 193.28C698.553 198.522 692.207 205.558 687.793 214.387C683.378 223.216 681.171 233.011 681.171 243.772C681.171 254.532 683.516 264.465 688.207 273.57C693.173 282.675 699.795 289.987 708.072 295.505C716.625 300.747 726.144 303.369 736.629 303.369Z" fill="black"/>
<path d="M357.905 352.205V61.6704H423.296V180.864L526.349 61.6704H604.984L489.929 190.383L611.192 352.205H532.143L423.296 205.282V352.205H357.905Z" fill="black"/>
</svg>
